<svg width="20" height="18" viewBox="0 0 20 18" fill="none" xmlns="http://www.w3.org/2000/svg">
<path d="M7 18V15H0V13H7C7.55 13 8.02083 13.1958 8.4125 13.5875C8.80417 13.9792 9 14.45 9 15V18H7ZM11 18V15C11 14.45 11.1958 13.9792 11.5875 13.5875C11.9792 13.1958 12.45 13 13 13H20V15H13V18H11ZM4 12C3.16667 12 2.45833 11.7083 1.875 11.125C1.29167 10.5417 1 9.83333 1 9V5H19V9C19 9.83333 18.7083 10.5417 18.125 11.125C17.5417 11.7083 16.8333 12 16 12H4ZM4 10H16C16.2833 10 16.5208 9.90417 16.7125 9.7125C16.9042 9.52083 17 9.28333 17 9V7H3V9C3 9.28333 3.09583 9.52083 3.2875 9.7125C3.47917 9.90417 3.71667 10 4 10ZM1 4V2H7V1C7 0.716667 7.09583 0.479167 7.2875 0.2875C7.47917 0.0958333 7.71667 0 8 0H12C12.2833 0 12.5208 0.0958333 12.7125 0.2875C12.9042 0.479167 13 0.716667 13 1V2H19V4H1ZM3 10C3 10 3 9.90417 3 9.7125C3 9.52083 3 9.28333 3 9V7V9C3 9.28333 3 9.52083 3 9.7125C3 9.90417 3 10 3 10Z" fill="#A8A29E"/>
</svg>
